PathFileType	4	(X/Y/Z)	C:/Users/beibeiliu/ov580/test_trc/User2\sequence.8_training_dense_left.trc
DataRate	CameraRate	NumFrames	NumMarkers	Units	OrigDataRate	OrigDataStartFrame	OrigNumFrames
120	120	14	19	mm	120	215	343
Frame#	Time	ThumbCMC			ThumbMCP			ThumbIP			ThumbTip			IndexMCP			IndexPIP			IndexTip			MiddleMCP			MiddlePIP			MiddleTip			RingMCP			RingPIP			RingTip			PinkyMCP			PinkyPIP			PinkyTip			BackHand1			BackHand2			BackHand3	
		X0	Y0	Z0	X1	Y1	Z1	X2	Y2	Z2	X3	Y3	Z3	X4	Y4	Z4	X5	Y5	Z5	X6	Y6	Z6	X7	Y7	Z7	X8	Y8	Z8	X9	Y9	Z9	X10	Y10	Z10	X11	Y11	Z11	X12	Y12	Z12	X13	Y13	Z13	X14	Y14	Z14	X15	Y15	Z15	X16	Y16	Z16	X17	Y17	Z17	X18	Y18	Z18	
214	1.78333	-208	18.4043	103.02	-229.862	29.5167	78.1901	-238.841	39.4768	46.5915	-234.435	48.2504	23.1148	-199.191	-7.04806	19.3872	-199.017	0.410202	-9.03514	-196.934	23.0461	-33.4677	-170.779	-11.4908	15.7338	-170.037	1.00681	-21.5767	-165.498	29.0675	-42.8237	-143.097	-4.70332	19.2512	-140.118	4.68249	-8.95378	-142.272	31.5521	-31.7972	-122.885	6.98724	32.8153	-116.258	19.3334	3.6338	-114.139	35.6076	-18.9881	-147.733	-12.873	76.9898	-147.018	-10.6335	110.859	-180.869	-12.2015	94.4247	
215	1.79167	-206.407	13.1061	102.798	-230.568	21.7449	82.3699	-242.814	29.1732	50.2521	-240.295	35.5951	26.1675	-201.131	-18.9003	28.5425	-205.621	-16.4169	-3.15454	-204.475	2.96862	-28.0266	-173.508	-24.4495	15.8004	-175.835	-16.6828	-15.6028	-174.883	12.4575	-44.0869	-151.034	-18.0541	15.9234	-146.282	-8.86963	-9.84211	-154.321	12.6274	-33.0026	-125.456	-3.83514	29.0583	-123.828	4.53963	2.97466	-124.998	18.8843	-23.1771	-146.661	-17.5375	78.6824	-146.896	-16.1616	113.891	-181.902	-18.6658	95.5274	
216	1.8	-205.906	7.76858	109.293	-231.082	14.7883	83.1439	-246.023	21.3696	55.1753	-242.546	24.9007	26.6742	-205.559	-27.4748	30.2941	-210.425	-22.6477	-3.85577	-210.868	-4.62702	-26.4577	-180.839	-32.0971	21.3804	-181.717	-24.3029	-16.8609	-177.299	3.61187	-41.3578	-153.871	-24.7998	22.2653	-151.552	-16.4365	-9.52047	-159.447	5.72829	-33.4473	-131.371	-12.058	29.5673	-127.571	-2.85481	4.02176	-130.783	10.7342	-22.0424	-151.864	-26.0334	80.6437	-143.992	-21.1857	111.863	-181.548	-23.3067	98.934	
217	1.80833	-210.788	0.626691	107.563	-231.579	9.42534	85.3046	-244.193	18.2167	58.5789	-240.826	23.1367	30.7323	-205.145	-26.831	27.8771	-207.302	-20.0132	-0.18288	-207.963	4.88996	-23.0606	-177.318	-32.1381	16.507	-177.937	-19.9536	-14.4566	-174	9.09404	-37.1883	-151.07	-24.8986	19.8925	-146.578	-14.299	-6.19356	-155.482	12.301	-29.5541	-128.564	-11.7668	35.2484	-121.266	-0.230597	8.50283	-126.511	17.5158	-16.1272	-151.212	-31.4532	82.2391	-145.645	-26.9385	115.792	-181.504	-28.9421	99.7413	
218	1.81667	-209.003	-4.09945	109.336	-229.641	6.98663	90.2417	-241.182	16.906	58.8114	-239.32	27.0559	32.5604	-197.899	-19.579	28.1199	-198.344	-6.19955	0.61306	-196.124	23.7439	-15.9937	-168.902	-23.6168	17.8818	-166.227	-5.11513	-9.14574	-162.884	29.8041	-26.5935	-144.069	-18.5123	26.0831	-142.429	-1.35859	-2.54063	-143.412	25.4117	-16.4205	-121.116	-8.82552	43.1426	-118.986	7.66097	14.9427	-118.265	27.4673	-5.28531	-148.888	-33.6002	85.0558	-145.217	-35.9805	117.208	-180.828	-34.4795	102.452	
219	1.825	-207.738	-6.7	112.589	-230.248	6.26251	92.863	-238.5	19.9363	58.5621	-234.642	33.5843	39.644	-192.253	-10.5636	29.7976	-188.727	8.76736	4.50938	-184.448	44.4399	-4.18026	-162.988	-11.8383	24.0928	-155.712	11.4782	-1.29887	-151.306	47.5612	-10.9868	-137.97	-6.80464	27.6283	-136.169	11.9332	9.09286	-135.496	44.9035	-3.1781	-119.375	-2.33568	48.7434	-108.593	17.0352	29.8357	-110.959	38.7175	12.9996	-145.89	-31.8585	87.0378	-148.445	-40.4123	119.354	-179.634	-34.5335	99.7485	
220	1.83333	-208.988	-8.89405	114.79	-228.88	5.65671	94.0734	-238.891	23.19	64.7037	-229.651	36.6796	41.1343	-186.479	-4.13141	31.2122	-184.479	20.803	8.60304	-180.113	50.5105	4.3715	-161.72	-5.63081	27.8161	-155.414	22.6114	3.84813	-150.636	60.9474	0.0242264	-133.547	-0.090555	31.8408	-128.106	22.6917	17.2782	-131.666	54.0495	10.4282	-110.819	3.43867	51.8015	-105.597	23.3266	37.0347	-108.448	49.7455	22.2758	-141.038	-31.4059	87.569	-148.898	-39.2533	118.748	-180.845	-34.9764	99.2658	
221	1.84167	-209.339	-10.7006	115.212	-228.79	4.68375	92.2526	-236.646	21.9191	61.624	-229.111	35.7851	39.2599	-183.999	-5.96638	31.9735	-182.474	17.2202	10.2791	-177.329	50.8914	7.04194	-160.486	-7.17813	25.9797	-151.246	23.0254	4.99007	-148.649	61.803	4.23112	-135.401	-1.75071	33.4313	-128.655	23.9173	17.6472	-130.723	58.0664	13.3881	-113.623	1.87113	51.1941	-105.057	24.4301	36.9873	-105.814	51.6782	25.4834	-142.659	-32.1047	87.2793	-144.037	-43.2469	124.503	-180.955	-36.6651	98.9148	
222	1.85	-206.253	-11.857	113.992	-227.449	1.54538	90.4916	-236.714	15.5221	59.0474	-227.367	28.0201	34.2133	-188.056	-14.4351	31.5606	-187.175	7.35484	7.6923	-181.396	39.031	0.925515	-161.663	-16.9562	26.3999	-155.87	13.1109	-0.440872	-150.682	51.0194	-2.17286	-137.545	-10.5804	28.8525	-130.892	12.3908	11.4109	-132.025	45.6639	6.4925	-114.966	-6.65094	52.1765	-105.894	18.6187	29.2092	-108.587	44.7971	17.5615	-140.231	-36.496	87.1138	-145.058	-42.0407	122.12	-176.19	-38.6186	103.61	
223	1.85833	-207.239	-13.6057	114.188	-226.945	-1.35165	95.4301	-235.134	8.17813	62.6584	-233.685	18.3399	34.5273	-191.18	-24.4463	30.0862	-188.846	-6.99346	4.08955	-183.454	24.8792	-7.36221	-162.191	-27.4698	23.3367	-162.381	-5.62274	-5.33769	-159.634	33.415	-15.124	-142.147	-23.4015	27.7002	-136.981	-0.731353	3.50705	-140.282	27.8491	-4.61557	-117.897	-14.685	42.0547	-113.484	5.34388	20.512	-114.035	31.086	6.34045	-144.72	-41.7539	87.1845	-140.105	-44.8134	119.878	-175.708	-39.8476	103.614	
224	1.86667	-205.602	-14.6586	113.968	-225.746	-7.06774	91.3787	-242.988	3.09354	62.6534	-238.638	9.65467	34.4839	-195.942	-34.7924	30.9788	-195.484	-19.5918	1.78958	-193.558	9.79505	-12.6413	-167.658	-38.2409	22.0212	-165.935	-18.7959	-9.56431	-168.523	15.0908	-23.6297	-144.383	-33.2772	30.0376	-140.522	-15.8805	-0.984045	-147.049	11.8429	-13.9484	-118.784	-22.8856	40.4106	-114.649	-6.09884	16.2968	-120.198	16.6878	-3.8857	-142.199	-44.1764	89.5221	-141.466	-45.054	123.244	-179.724	-43.6307	104.308	
225	1.875	-208.061	-14.7242	116.537	-232.041	-7.86805	96.5169	-240.79	-0.861443	67.3395	-241.464	3.16392	34.0092	-199.049	-40.973	31.2367	-204.738	-27.935	3.22471	-197.309	-5.33095	-14.1951	-175.034	-45.0573	28.0431	-171.867	-29.7018	-7.49762	-174.518	1.29557	-26.0141	-147.475	-39.2621	25.0918	-151.388	-25.7178	-1.78565	-152.559	0.497183	-18.2559	-126.582	-26.7093	37.6614	-122.025	-12.2149	12.6866	-124.275	7.14147	-9.58851	-144.717	-46.0603	90.299	-141.827	-40.6068	124.624	-179.642	-42.7062	107.289	
226	1.88333	-209.087	-13.9577	116.745	-228.438	-6.80979	95.702	-247.009	-1.32725	63.6193	-243.373	2.27268	35.2979	-202.762	-41.3722	36.237	-207.586	-31.4835	5.01423	-205.241	-8.5891	-14.4822	-178.212	-45.6626	26.6006	-178.52	-30.0597	-8.91782	-179.977	0.151833	-27.4725	-154.596	-40.392	25.9093	-151.694	-27.5893	-1.30029	-159.04	-0.520471	-21.3533	-125.924	-27.707	36.5764	-122.886	-13.1813	11.3147	-130.08	1.64835	-8.66957	-144.009	-45.5361	86.914	-144.786	-41.6782	122.042	-178.323	-42.4707	109.842	
227	1.89167	-206.189	-12.9666	118.815	-229.015	-7.18799	97.7913	-243.171	-0.0451274	66.6091	-243.005	4.75609	38.5995	-203.24	-38.7538	37.6269	-209.796	-29.252	8.03718	-206.458	-1.12731	-13.1097	-180.338	-42.3035	26.7484	-181.358	-26.2084	-8.24052	-180.556	3.90978	-27.1831	-151.027	-37.7182	24.9791	-153.846	-24.0872	-1.94545	-157.038	3.68816	-20.9701	-129.014	-25.1554	41.517	-123.304	-12.0294	16.4713	-124.165	4.8664	-6.3174	-149.959	-46.7136	87.6456	-143.714	-40.9034	122.347	-183.894	-44.3608	108.157	
